<svg width="225" height="24" viewBox="0 0 225 24" fill="none" xmlns="http://www.w3.org/2000/svg">
<circle cx="8" cy="12" r="7.75" stroke="white" stroke-width="0.5"/>
<path d="M4 8.06127H6.15045L8.13816 10.735L10.6124 8L11.2003 8.01021L8.43125 11.1196L11.271 14.9387H9.12137L7.24527 12.4471L4.95339 15H4.37488L6.9607 12.0829L4 8.06127ZM5.94767 8.45611H4.81196L9.35567 14.5337H10.4709L5.94767 8.45611Z" fill="white"/>
<circle cx="30" cy="12" r="7.75" stroke="white" stroke-width="0.5"/>
<path d="M30 8C28.9137 8 28.7774 8.00461 28.3508 8.02407C27.925 8.04349 27.6343 8.11112 27.3798 8.20998C27.1168 8.31221 26.8937 8.44899 26.6714 8.67135C26.449 8.89372 26.3122 9.11682 26.21 9.37985C26.1111 9.63428 26.0435 9.92505 26.0241 10.3508C26.0046 10.7774 26 10.9137 26 12C26 13.0863 26.0046 13.2226 26.0241 13.6492C26.0435 14.075 26.1111 14.3657 26.21 14.6201C26.3122 14.8832 26.449 15.1063 26.6714 15.3286C26.8937 15.551 27.1168 15.6878 27.3798 15.79C27.6343 15.8889 27.925 15.9565 28.3508 15.9759C28.7774 15.9954 28.9137 16 30 16C31.0863 16 31.2226 15.9954 31.6492 15.9759C32.075 15.9565 32.3657 15.8889 32.6201 15.79C32.8832 15.6878 33.1063 15.551 33.3286 15.3286C33.551 15.1063 33.6878 14.8832 33.79 14.6201C33.8889 14.3657 33.9565 14.075 33.9759 13.6492C33.9954 13.2226 34 13.0863 34 12C34 10.9137 33.9954 10.7774 33.9759 10.3508C33.9565 9.92505 33.8889 9.63428 33.79 9.37985C33.6878 9.11682 33.551 8.89372 33.3286 8.67135C33.1063 8.44899 32.8832 8.31221 32.6201 8.20998C32.3657 8.11112 32.075 8.04349 31.6492 8.02407C31.2226 8.00461 31.0863 8 30 8ZM30 8.72072C31.068 8.72072 31.1946 8.7248 31.6163 8.74404C32.0063 8.76182 32.2181 8.82699 32.3591 8.88177C32.5458 8.95434 32.679 9.04101 32.819 9.18098C32.959 9.32095 33.0457 9.45421 33.1182 9.64091C33.173 9.78186 33.2382 9.99366 33.256 10.3837C33.2752 10.8054 33.2793 10.932 33.2793 12C33.2793 13.068 33.2752 13.1946 33.256 13.6163C33.2382 14.0063 33.173 14.2181 33.1182 14.3591C33.0457 14.5458 32.959 14.679 32.819 14.819C32.679 14.959 32.5458 15.0457 32.3591 15.1182C32.2181 15.173 32.0063 15.2382 31.6163 15.256C31.1946 15.2752 31.0681 15.2793 30 15.2793C28.9319 15.2793 28.8054 15.2752 28.3837 15.2559C27.9937 15.2382 27.7819 15.173 27.6409 15.1182C27.4542 15.0457 27.321 14.959 27.181 14.819C27.041 14.679 26.9543 14.5458 26.8818 14.3591C26.827 14.2181 26.7618 14.0063 26.744 13.6163C26.7248 13.1946 26.7207 13.068 26.7207 12C26.7207 10.932 26.7248 10.8054 26.744 10.3837C26.7618 9.99365 26.827 9.78186 26.8818 9.64092C26.9543 9.4542 27.041 9.32095 27.181 9.18099C27.321 9.04101 27.4542 8.95434 27.6409 8.88177C27.7819 8.82699 27.9937 8.76182 28.3837 8.74404C28.8054 8.7248 28.932 8.72072 30 8.72072" fill="white"/>
<path d="M29.9999 13.3333C29.2635 13.3333 28.6665 12.7364 28.6665 12C28.6665 11.2636 29.2635 10.6666 29.9999 10.6666C30.7362 10.6666 31.3332 11.2636 31.3332 12C31.3332 12.7364 30.7362 13.3333 29.9999 13.3333ZM29.9999 9.94593C28.8654 9.94593 27.9458 10.8656 27.9458 12C27.9458 13.1344 28.8654 14.054 29.9999 14.054C31.1343 14.054 32.0539 13.1344 32.0539 12C32.0539 10.8656 31.1343 9.94593 29.9999 9.94593ZM32.6151 9.86477C32.6151 10.1299 32.4002 10.3448 32.1351 10.3448C31.87 10.3448 31.6551 10.1299 31.6551 9.86477C31.6551 9.59968 31.87 9.38477 32.1351 9.38477C32.4002 9.38477 32.6151 9.59968 32.6151 9.86477Z" fill="white"/>
<circle cx="52" cy="12" r="7.75" stroke="white" stroke-width="0.5"/>
<path d="M50.9962 9.84947V10.7097H50.1934V12H50.9962V15.871H52.602V12H53.6698L53.8063 10.7097H52.602V9.957C52.602 9.60863 52.6341 9.42367 53.1359 9.42367H53.8063V8.12903H52.7304C51.4459 8.12907 50.9962 8.7742 50.9962 9.84947Z" fill="white"/>
<circle cx="74" cy="12" r="7.75" stroke="white" stroke-width="0.5"/>
<path d="M75.7661 11.2444C75.7355 11.2299 75.7043 11.216 75.6728 11.2027C75.6178 10.2071 75.0645 9.63716 74.1355 9.63133C74.1313 9.6313 74.1271 9.6313 74.1229 9.6313C73.5673 9.6313 73.1051 9.86451 72.8207 10.2889L73.3316 10.6335C73.5441 10.3165 73.8776 10.2489 74.1232 10.2489C74.126 10.2489 74.1289 10.2489 74.1317 10.249C74.4376 10.2509 74.6684 10.3383 74.8178 10.5088C74.9265 10.633 74.9992 10.8046 75.0352 11.0211C74.764 10.9758 74.4707 10.9618 74.1572 10.9795C73.2739 11.0295 72.7061 11.536 72.7442 12.2398C72.7636 12.5968 72.9445 12.9039 73.2535 13.1046C73.5148 13.2742 73.8514 13.3571 74.2012 13.3383C74.6631 13.3134 75.0255 13.1402 75.2783 12.8233C75.4703 12.5827 75.5917 12.2708 75.6454 11.8779C75.8655 12.0086 76.0287 12.1805 76.1188 12.3871C76.272 12.7384 76.2809 13.3156 75.8019 13.7862C75.3822 14.1985 74.8777 14.3769 74.1152 14.3824C73.2694 14.3762 72.6298 14.1095 72.2139 13.5897C71.8245 13.1029 71.6232 12.3999 71.6157 11.5C71.6232 10.6001 71.8245 9.89706 72.2139 9.41031C72.6298 8.89049 73.2694 8.6238 74.1152 8.61762C74.9671 8.62385 75.6179 8.89182 76.0497 9.41415C76.2614 9.67029 76.421 9.9924 76.5263 10.368L77.125 10.2109C76.9974 9.74862 76.7967 9.35026 76.5236 9.01989C75.97 8.35024 75.1604 8.00711 74.1173 8H74.1131C73.0721 8.00709 72.2715 8.35152 71.7337 9.02372C71.2552 9.6219 71.0083 10.4542 71 11.4975L71 11.5L71 11.5025C71.0083 12.5458 71.2552 13.3781 71.7337 13.9763C72.2715 14.6485 73.0721 14.9929 74.1131 15H74.1173C75.0428 14.9937 75.6952 14.7554 76.2326 14.2275C76.9358 13.5368 76.9146 12.671 76.6829 12.1395C76.5166 11.7584 76.1996 11.4488 75.7661 11.2444ZM74.1681 12.7216C73.781 12.743 73.3788 12.5722 73.359 12.2063C73.3443 11.9349 73.5554 11.6322 74.1919 11.5961C74.2648 11.592 74.3363 11.59 74.4066 11.59C74.6378 11.59 74.854 11.6121 75.0507 11.6543C74.9773 12.5549 74.5471 12.7012 74.1681 12.7216Z" fill="white"/>
<circle cx="96" cy="12" r="7.75" stroke="white" stroke-width="0.5"/>
<path d="M98.7527 14.4382H93.314C92.5863 14.4382 92 13.7946 92 13.003V10.4352C92 9.64036 92.5892 9 93.314 9H98.7527C99.4804 9 100.067 9.64357 100.067 10.4352V13.003C100.07 13.7978 99.4804 14.4382 98.7527 14.4382Z" stroke="white" stroke-width="0.6"/>
<path d="M97.4603 11.6788L95.1724 10.3595V12.9982L97.4603 11.6788Z" stroke="white" stroke-width="0.6"/>
<path d="M119.17 15.09C118.863 15.09 118.563 15.0667 118.27 15.02C117.977 14.9733 117.7 14.9033 117.44 14.81C117.18 14.71 116.947 14.59 116.74 14.45C116.64 14.3767 116.57 14.2933 116.53 14.2C116.497 14.1067 116.487 14.0167 116.5 13.93C116.52 13.8367 116.56 13.7567 116.62 13.69C116.68 13.6233 116.753 13.5833 116.84 13.57C116.927 13.55 117.023 13.5767 117.13 13.65C117.43 13.8433 117.747 13.9867 118.08 14.08C118.413 14.1667 118.777 14.21 119.17 14.21C119.737 14.21 120.153 14.11 120.42 13.91C120.693 13.7033 120.83 13.4367 120.83 13.11C120.83 12.8433 120.733 12.6333 120.54 12.48C120.347 12.32 120.023 12.1933 119.57 12.1L118.5 11.88C117.867 11.7467 117.393 11.5267 117.08 11.22C116.773 10.9133 116.62 10.5 116.62 9.98C116.62 9.66667 116.683 9.38 116.81 9.12C116.943 8.86 117.127 8.63667 117.36 8.45C117.593 8.25667 117.873 8.11 118.2 8.01C118.527 7.91 118.883 7.86 119.27 7.86C119.683 7.86 120.07 7.91333 120.43 8.02C120.797 8.12667 121.123 8.29 121.41 8.51C121.497 8.57 121.553 8.64667 121.58 8.74C121.613 8.82667 121.62 8.91333 121.6 9C121.587 9.08667 121.55 9.16 121.49 9.22C121.43 9.28 121.353 9.31667 121.26 9.33C121.167 9.33667 121.063 9.30333 120.95 9.23C120.69 9.05667 120.423 8.93333 120.15 8.86C119.883 8.78 119.587 8.74 119.26 8.74C118.933 8.74 118.647 8.79 118.4 8.89C118.16 8.99 117.973 9.13 117.84 9.31C117.713 9.49 117.65 9.70333 117.65 9.95C117.65 10.23 117.74 10.4533 117.92 10.62C118.1 10.7867 118.4 10.9133 118.82 11L119.88 11.22C120.547 11.36 121.043 11.5767 121.37 11.87C121.697 12.1633 121.86 12.5533 121.86 13.04C121.86 13.3533 121.797 13.6367 121.67 13.89C121.543 14.1367 121.363 14.35 121.13 14.53C120.897 14.71 120.613 14.85 120.28 14.95C119.953 15.0433 119.583 15.09 119.17 15.09ZM123.641 15.07C123.467 15.07 123.331 15.0233 123.231 14.93C123.137 14.8367 123.091 14.7 123.091 14.52V8.51C123.091 8.33 123.137 8.19333 123.231 8.1C123.331 8 123.471 7.95 123.651 7.95H127.211C127.357 7.95 127.464 7.98667 127.531 8.06C127.604 8.12667 127.641 8.22667 127.641 8.36C127.641 8.5 127.604 8.60667 127.531 8.68C127.464 8.75333 127.357 8.79 127.211 8.79H124.131V11.04H127.011C127.144 11.04 127.247 11.0767 127.321 11.15C127.401 11.2167 127.441 11.3167 127.441 11.45C127.441 11.59 127.401 11.6967 127.321 11.77C127.247 11.8433 127.144 11.88 127.011 11.88H124.131V14.52C124.131 14.8867 123.967 15.07 123.641 15.07ZM129.198 15.07C129.031 15.07 128.901 15.0233 128.808 14.93C128.721 14.8367 128.678 14.7067 128.678 14.54V8.41C128.678 8.23667 128.721 8.10667 128.808 8.02C128.901 7.92667 129.031 7.88 129.198 7.88C129.364 7.88 129.491 7.92667 129.578 8.02C129.671 8.10667 129.718 8.23667 129.718 8.41V14.54C129.718 14.7067 129.674 14.8367 129.588 14.93C129.501 15.0233 129.371 15.07 129.198 15.07ZM134.61 15.07C134.444 15.07 134.314 15.0233 134.22 14.93C134.134 14.8367 134.09 14.7067 134.09 14.54V8.48C134.09 8.30667 134.137 8.17667 134.23 8.09C134.324 7.99667 134.454 7.95 134.62 7.95H137.01C137.77 7.95 138.357 8.14 138.77 8.52C139.184 8.89333 139.39 9.42 139.39 10.1C139.39 10.7867 139.184 11.32 138.77 11.7C138.357 12.0733 137.77 12.26 137.01 12.26H135.13V14.54C135.13 14.7067 135.087 14.8367 135 14.93C134.914 15.0233 134.784 15.07 134.61 15.07ZM135.13 11.43H136.86C137.36 11.43 137.737 11.32 137.99 11.1C138.25 10.8733 138.38 10.54 138.38 10.1C138.38 9.66667 138.25 9.34 137.99 9.12C137.737 8.89333 137.36 8.78 136.86 8.78H135.13V11.43ZM139.794 15.07C139.66 15.07 139.554 15.04 139.474 14.98C139.394 14.92 139.347 14.84 139.334 14.74C139.32 14.64 139.34 14.5267 139.394 14.4L142.104 8.32C142.17 8.16 142.254 8.04667 142.354 7.98C142.46 7.91333 142.577 7.88 142.704 7.88C142.824 7.88 142.934 7.91333 143.034 7.98C143.14 8.04667 143.227 8.16 143.294 8.32L146.004 14.4C146.064 14.5267 146.087 14.6433 146.074 14.75C146.06 14.85 146.017 14.93 145.944 14.99C145.87 15.0433 145.767 15.07 145.634 15.07C145.487 15.07 145.37 15.0333 145.284 14.96C145.197 14.8867 145.12 14.7733 145.054 14.62L144.354 13L144.824 13.28H140.564L141.024 13L140.334 14.62C140.267 14.78 140.194 14.8967 140.114 14.97C140.034 15.0367 139.927 15.07 139.794 15.07ZM142.684 9.1L141.174 12.68L140.924 12.44H144.454L144.224 12.68L142.704 9.1H142.684ZM147.777 15C147.61 15 147.48 14.9533 147.387 14.86C147.294 14.7667 147.247 14.6367 147.247 14.47V8.44C147.247 8.26667 147.29 8.13667 147.377 8.05C147.47 7.95667 147.6 7.91 147.767 7.91C147.934 7.91 148.06 7.95667 148.147 8.05C148.24 8.13667 148.287 8.26667 148.287 8.44V14.11H151.387C151.534 14.11 151.647 14.15 151.727 14.23C151.807 14.3033 151.847 14.41 151.847 14.55C151.847 14.69 151.807 14.8 151.727 14.88C151.647 14.96 151.534 15 151.387 15H147.777ZM152.589 15.07C152.456 15.07 152.349 15.04 152.269 14.98C152.189 14.92 152.142 14.84 152.129 14.74C152.116 14.64 152.136 14.5267 152.189 14.4L154.899 8.32C154.966 8.16 155.049 8.04667 155.149 7.98C155.256 7.91333 155.372 7.88 155.499 7.88C155.619 7.88 155.729 7.91333 155.829 7.98C155.936 8.04667 156.022 8.16 156.089 8.32L158.799 14.4C158.859 14.5267 158.882 14.6433 158.869 14.75C158.856 14.85 158.812 14.93 158.739 14.99C158.666 15.0433 158.562 15.07 158.429 15.07C158.282 15.07 158.166 15.0333 158.079 14.96C157.992 14.8867 157.916 14.7733 157.849 14.62L157.149 13L157.619 13.28H153.359L153.819 13L153.129 14.62C153.062 14.78 152.989 14.8967 152.909 14.97C152.829 15.0367 152.722 15.07 152.589 15.07ZM155.479 9.1L153.969 12.68L153.719 12.44H157.249L157.019 12.68L155.499 9.1H155.479ZM161.598 15.07C161.431 15.07 161.301 15.0233 161.208 14.93C161.121 14.8367 161.078 14.7033 161.078 14.53V11.36L161.308 12.02L158.838 8.59C158.765 8.49 158.731 8.38667 158.738 8.28C158.745 8.16667 158.788 8.07333 158.868 8C158.955 7.92 159.068 7.88 159.208 7.88C159.315 7.88 159.411 7.90667 159.498 7.96C159.591 8.01333 159.678 8.09667 159.758 8.21L161.738 10.96H161.498L163.478 8.21C163.565 8.09 163.648 8.00667 163.728 7.96C163.808 7.90667 163.908 7.88 164.028 7.88C164.168 7.88 164.275 7.91667 164.348 7.99C164.428 8.05667 164.468 8.14667 164.468 8.26C164.475 8.36667 164.435 8.48 164.348 8.6L161.898 12.02L162.108 11.36V14.53C162.108 14.89 161.938 15.07 161.598 15.07ZM164.808 15.07C164.675 15.07 164.568 15.04 164.488 14.98C164.408 14.92 164.361 14.84 164.348 14.74C164.335 14.64 164.355 14.5267 164.408 14.4L167.118 8.32C167.185 8.16 167.268 8.04667 167.368 7.98C167.475 7.91333 167.591 7.88 167.718 7.88C167.838 7.88 167.948 7.91333 168.048 7.98C168.155 8.04667 168.241 8.16 168.308 8.32L171.018 14.4C171.078 14.5267 171.101 14.6433 171.088 14.75C171.075 14.85 171.031 14.93 170.958 14.99C170.885 15.0433 170.781 15.07 170.648 15.07C170.501 15.07 170.385 15.0333 170.298 14.96C170.211 14.8867 170.135 14.7733 170.068 14.62L169.368 13L169.838 13.28H165.578L166.038 13L165.348 14.62C165.281 14.78 165.208 14.8967 165.128 14.97C165.048 15.0367 164.941 15.07 164.808 15.07ZM167.698 9.1L166.188 12.68L165.938 12.44H169.468L169.238 12.68L167.718 9.1H167.698ZM172.821 15C172.641 15 172.501 14.9533 172.401 14.86C172.308 14.76 172.261 14.62 172.261 14.44V8.51C172.261 8.33 172.308 8.19333 172.401 8.1C172.501 8 172.641 7.95 172.821 7.95H174.751C175.911 7.95 176.805 8.25333 177.431 8.86C178.065 9.46 178.381 10.33 178.381 11.47C178.381 12.0367 178.301 12.54 178.141 12.98C177.981 13.42 177.745 13.79 177.431 14.09C177.125 14.3833 176.748 14.61 176.301 14.77C175.855 14.9233 175.338 15 174.751 15H172.821ZM173.301 14.13H174.691C175.131 14.13 175.511 14.0767 175.831 13.97C176.158 13.8567 176.431 13.69 176.651 13.47C176.871 13.25 177.035 12.9733 177.141 12.64C177.248 12.3067 177.301 11.9167 177.301 11.47C177.301 10.5833 177.081 9.92 176.641 9.48C176.208 9.04 175.558 8.82 174.691 8.82H173.301V14.13ZM185.668 15.09C184.955 15.09 184.345 14.9433 183.838 14.65C183.331 14.3567 182.941 13.94 182.668 13.4C182.401 12.8533 182.268 12.21 182.268 11.47C182.268 10.9167 182.345 10.42 182.498 9.98C182.651 9.53333 182.871 9.15333 183.158 8.84C183.451 8.52 183.808 8.27667 184.228 8.11C184.655 7.94333 185.135 7.86 185.668 7.86C186.061 7.86 186.438 7.91333 186.798 8.02C187.165 8.12667 187.481 8.28 187.748 8.48C187.861 8.55333 187.935 8.64333 187.968 8.75C188.008 8.85 188.015 8.94667 187.988 9.04C187.968 9.13333 187.925 9.21333 187.858 9.28C187.791 9.34 187.705 9.37333 187.598 9.38C187.498 9.38667 187.388 9.35 187.268 9.27C187.048 9.10333 186.805 8.98 186.538 8.9C186.271 8.82 185.991 8.78 185.698 8.78C185.191 8.78 184.765 8.88667 184.418 9.1C184.071 9.30667 183.808 9.61 183.628 10.01C183.448 10.41 183.358 10.8967 183.358 11.47C183.358 12.0433 183.448 12.5333 183.628 12.94C183.808 13.34 184.071 13.6467 184.418 13.86C184.765 14.0667 185.191 14.17 185.698 14.17C185.991 14.17 186.271 14.13 186.538 14.05C186.811 13.9633 187.068 13.8367 187.308 13.67C187.428 13.5967 187.535 13.5633 187.628 13.57C187.728 13.5767 187.811 13.61 187.878 13.67C187.945 13.73 187.988 13.8067 188.008 13.9C188.035 13.9867 188.031 14.08 187.998 14.18C187.971 14.2733 187.908 14.3533 187.808 14.42C187.535 14.64 187.211 14.8067 186.838 14.92C186.465 15.0333 186.075 15.09 185.668 15.09ZM189.119 15.07C188.986 15.07 188.879 15.04 188.799 14.98C188.719 14.92 188.673 14.84 188.659 14.74C188.646 14.64 188.666 14.5267 188.719 14.4L191.429 8.32C191.496 8.16 191.579 8.04667 191.679 7.98C191.786 7.91333 191.903 7.88 192.029 7.88C192.149 7.88 192.259 7.91333 192.359 7.98C192.466 8.04667 192.553 8.16 192.619 8.32L195.329 14.4C195.389 14.5267 195.413 14.6433 195.399 14.75C195.386 14.85 195.343 14.93 195.269 14.99C195.196 15.0433 195.093 15.07 194.959 15.07C194.813 15.07 194.696 15.0333 194.609 14.96C194.523 14.8867 194.446 14.7733 194.379 14.62L193.679 13L194.149 13.28H189.889L190.349 13L189.659 14.62C189.593 14.78 189.519 14.8967 189.439 14.97C189.359 15.0367 189.253 15.07 189.119 15.07ZM192.009 9.1L190.499 12.68L190.249 12.44H193.779L193.549 12.68L192.029 9.1H192.009ZM197.073 15.07C196.919 15.07 196.799 15.0267 196.713 14.94C196.633 14.8533 196.593 14.7333 196.593 14.58V8.37C196.593 8.21 196.636 8.09 196.723 8.01C196.809 7.92333 196.926 7.88 197.073 7.88C197.213 7.88 197.319 7.90667 197.393 7.96C197.473 8.00667 197.546 8.09333 197.613 8.22L200.233 13.11H199.923L202.533 8.22C202.599 8.09333 202.669 8.00667 202.743 7.96C202.816 7.90667 202.923 7.88 203.063 7.88C203.209 7.88 203.323 7.92333 203.403 8.01C203.483 8.09 203.523 8.21 203.523 8.37V14.58C203.523 14.7333 203.483 14.8533 203.403 14.94C203.329 15.0267 203.216 15.07 203.063 15.07C202.909 15.07 202.793 15.0267 202.713 14.94C202.633 14.8533 202.593 14.7333 202.593 14.58V9.42H202.813L200.493 13.71C200.439 13.81 200.383 13.8833 200.323 13.93C200.263 13.9767 200.179 14 200.073 14C199.966 14 199.879 13.9767 199.813 13.93C199.746 13.8767 199.686 13.8033 199.633 13.71L197.293 9.41H197.533V14.58C197.533 14.7333 197.493 14.8533 197.413 14.94C197.339 15.0267 197.226 15.07 197.073 15.07ZM205.756 15.07C205.589 15.07 205.459 15.0233 205.366 14.93C205.279 14.8367 205.236 14.7067 205.236 14.54V8.48C205.236 8.30667 205.283 8.17667 205.376 8.09C205.469 7.99667 205.599 7.95 205.766 7.95H208.156C208.916 7.95 209.503 8.14 209.916 8.52C210.329 8.89333 210.536 9.42 210.536 10.1C210.536 10.7867 210.329 11.32 209.916 11.7C209.503 12.0733 208.916 12.26 208.156 12.26H206.276V14.54C206.276 14.7067 206.233 14.8367 206.146 14.93C206.059 15.0233 205.929 15.07 205.756 15.07ZM206.276 11.43H208.006C208.506 11.43 208.883 11.32 209.136 11.1C209.396 10.8733 209.526 10.54 209.526 10.1C209.526 9.66667 209.396 9.34 209.136 9.12C208.883 8.89333 208.506 8.78 208.006 8.78H206.276V11.43ZM214.552 15.09C214.079 15.09 213.662 15.03 213.302 14.91C212.942 14.7833 212.639 14.5967 212.392 14.35C212.152 14.1033 211.969 13.7967 211.842 13.43C211.715 13.0633 211.652 12.64 211.652 12.16V8.4C211.652 8.22667 211.695 8.09667 211.782 8.01C211.875 7.92333 212.005 7.88 212.172 7.88C212.339 7.88 212.465 7.92333 212.552 8.01C212.645 8.09667 212.692 8.22667 212.692 8.4V12.14C212.692 12.8267 212.849 13.34 213.162 13.68C213.482 14.02 213.945 14.19 214.552 14.19C215.165 14.19 215.629 14.02 215.942 13.68C216.255 13.34 216.412 12.8267 216.412 12.14V8.4C216.412 8.22667 216.455 8.09667 216.542 8.01C216.635 7.92333 216.762 7.88 216.922 7.88C217.089 7.88 217.215 7.92333 217.302 8.01C217.389 8.09667 217.432 8.22667 217.432 8.4V12.16C217.432 12.8 217.322 13.34 217.102 13.78C216.889 14.2133 216.569 14.54 216.142 14.76C215.715 14.98 215.185 15.09 214.552 15.09ZM221.436 15.09C221.129 15.09 220.829 15.0667 220.536 15.02C220.243 14.9733 219.966 14.9033 219.706 14.81C219.446 14.71 219.213 14.59 219.006 14.45C218.906 14.3767 218.836 14.2933 218.796 14.2C218.763 14.1067 218.753 14.0167 218.766 13.93C218.786 13.8367 218.826 13.7567 218.886 13.69C218.946 13.6233 219.019 13.5833 219.106 13.57C219.193 13.55 219.289 13.5767 219.396 13.65C219.696 13.8433 220.013 13.9867 220.346 14.08C220.679 14.1667 221.043 14.21 221.436 14.21C222.003 14.21 222.419 14.11 222.686 13.91C222.959 13.7033 223.096 13.4367 223.096 13.11C223.096 12.8433 222.999 12.6333 222.806 12.48C222.613 12.32 222.289 12.1933 221.836 12.1L220.766 11.88C220.133 11.7467 219.659 11.5267 219.346 11.22C219.039 10.9133 218.886 10.5 218.886 9.98C218.886 9.66667 218.949 9.38 219.076 9.12C219.209 8.86 219.393 8.63667 219.626 8.45C219.859 8.25667 220.139 8.11 220.466 8.01C220.793 7.91 221.149 7.86 221.536 7.86C221.949 7.86 222.336 7.91333 222.696 8.02C223.063 8.12667 223.389 8.29 223.676 8.51C223.763 8.57 223.819 8.64667 223.846 8.74C223.879 8.82667 223.886 8.91333 223.866 9C223.853 9.08667 223.816 9.16 223.756 9.22C223.696 9.28 223.619 9.31667 223.526 9.33C223.433 9.33667 223.329 9.30333 223.216 9.23C222.956 9.05667 222.689 8.93333 222.416 8.86C222.149 8.78 221.853 8.74 221.526 8.74C221.199 8.74 220.913 8.79 220.666 8.89C220.426 8.99 220.239 9.13 220.106 9.31C219.979 9.49 219.916 9.70333 219.916 9.95C219.916 10.23 220.006 10.4533 220.186 10.62C220.366 10.7867 220.666 10.9133 221.086 11L222.146 11.22C222.813 11.36 223.309 11.5767 223.636 11.87C223.963 12.1633 224.126 12.5533 224.126 13.04C224.126 13.3533 224.063 13.6367 223.936 13.89C223.809 14.1367 223.629 14.35 223.396 14.53C223.163 14.71 222.879 14.85 222.546 14.95C222.219 15.0433 221.849 15.09 221.436 15.09Z" fill="white"/>
</svg>
